<svg width="92" height="75" viewBox="0 0 92 75" fill="none" xmlns="http://www.w3.org/2000/svg">
<g opacity="0.92">
<path d="M51.0411 0H41.064L0 66.0593L6.61649 74.5662H85.3836L92 66.0593L51.0411 0ZM9.24206 66.4794L46 5.88125L82.758 66.4794H9.24206Z" fill="#FEFEFE"/>
<path d="M43 35.3425L43.9451 49.5206H48.4612L49.4063 35.3425V24H43V35.3425Z" fill="#FEFEFE"/>
<path d="M45.7809 53C43.5754 53 42 54.4703 42 56.8858C42 59.3014 43.5754 60.6667 45.7809 60.6667C47.9863 60.6667 49.5616 59.1963 49.5616 56.8858C49.5616 54.5753 48.0914 53 45.7809 53Z" fill="white"/>
<g style="mix-blend-mode:multiply">
<path d="M9.24206 66.4794L46 5.88125L82.758 66.4794H9.24206ZM6.61649 74.5662H85.3836L92 66.0593L51.0411 0H41.064L0 66.0593L6.61649 74.5662V74.5662Z" fill="#0037FF"/>
</g>
<g style="mix-blend-mode:multiply">
<path d="M43.9451 49.5206H48.4612L49.4063 35.3425V24H43V35.3425L43.9451 49.5206Z" fill="#FF4F33"/>
</g>
<g style="mix-blend-mode:multiply">
<path d="M45.7809 60.6667C48.0914 60.6667 49.5616 59.1963 49.5616 56.8858C49.5616 54.5753 48.0914 53 45.7809 53C43.4704 53 42 54.4703 42 56.8858C42 59.3014 43.5754 60.6667 45.7809 60.6667Z" fill="#FF4F33"/>
</g>
</g>
</svg>
